<?xml version="1.0" encoding="utf-8"?>
<!-- Generator: Adobe Illustrator 16.0.0, SVG Export Plug-In . SVG Version: 6.00 Build 0)  -->
<!DOCTYPE svg PUBLIC "-//W3C//DTD SVG 1.1//EN" "http://www.w3.org/Graphics/SVG/1.1/DTD/svg11.dtd">
<svg version="1.1" id="Layer_1" xmlns="http://www.w3.org/2000/svg" xmlns:xlink="http://www.w3.org/1999/xlink" x="0px" y="0px"
	 width="256px" height="256px" viewBox="0 0 256 256" enable-background="new 0 0 256 256" xml:space="preserve">
<path fill="#FFFFFF" stroke="#000000" stroke-miterlimit="10" d="M124.57,120.003c1.412-0.966,2.862-1.88,4.228-2.907
	c3.522-2.648,6.856-5.58,10.54-7.976c6.96-4.525,14.878-4.647,22.853-4.495c8.035,0.154,15.438,2.983,23.021,5.062
	c1.358,0.373,2.62,1.147,3.882,1.82c2.938,1.565,5.862,3.16,8.766,4.791c0.709,0.398,1.312,0.981,1.968,1.476
	c1.403,1.06,2.802,2.127,4.215,3.171c0.476,0.352,1.285,0.541,1.443,0.983c0.719,1.996,2.557,2.754,4.012,3.941
	c0.278,0.227,0.663,0.427,0.778,0.725c0.273,0.713,0.415,1.477,0.61,2.221c-0.75,0.059-1.579,0.355-2.23,0.132
	c-1.914-0.652-3.731-1.598-5.642-2.27c-3.678-1.294-7.426-1.662-11.307-0.865c-1.492,0.306-3.146,0.364-4.626,0.054
	c-3.021-0.632-5.896-0.611-8.785,0.561c-1.096,0.445-2.303,0.708-3.483,0.832c-5.712,0.601-10.189,3.965-14.938,6.678
	c-0.75,0.43-1.198,1.69-1.441,2.653c-0.993,3.938-1.872,7.905-2.754,11.869c-0.849,3.819-3.245,6.651-6.079,9.064
	c-4.182,3.562-8.524,6.941-12.857,10.323c-3.517,2.745-7.747,3.558-12.023,4.281c-5.818,0.983-11.195-0.966-16.484-2.696
	c-4.308-1.408-7.441-1.303-10.78,2.294c-3.216,3.466-7.359,5.999-11.777,8.044c-4.867,2.256-9.75,2.378-14.668,0.9
	c-6.815-2.05-13.248-5.028-18.237-10.279c-4.453-4.686-7.493-10.194-8.068-16.797c-0.256-2.936-1.04-5.555-3.174-7.765
	c-4.019-4.16-7.323-8.814-9.325-14.32c-1.673-4.601-2.245-9.263-1.029-14.054c0.53-2.086,1.321-4.115,1.739-6.22
	c1.278-6.431,6.313-9.612,11.136-12.912c0.979-0.67,2.534-0.678,3.823-0.683c4.52-0.017,9.117-0.512,13.434,1.343
	c1.926,0.828,3.431-0.033,5.093-0.764c2.05-0.903,4.146-1.888,6.321-2.265c2.609-0.451,5.24-0.01,7.541,1.612
	c0.773,0.545,1.693,0.889,2.563,1.29c2.075,0.956,3.94,0.746,5.544-1c1.051-1.146,2.201-2.207,3.201-3.395
	c2.583-3.065,5.922-4.68,9.764-5.596c9.71-2.315,20.178,2.151,24.093,10.843c2.029,4.505,2.995,9.333,0.511,14.197
	c-0.89,1.743-1.403,3.679-2.088,5.527C124.091,119.625,124.331,119.813,124.57,120.003z M102.762,121.369
	c-0.541,0.762-0.647,1.083-0.812,1.118c-1.157,0.24-2.327,0.417-3.491,0.622c-2.356,0.413-4.805,3.226-4.554,5.226
	c0.647,5.159,5.397,8.207,10.294,6.428c2.35-0.854,4.724-1.86,6.779-3.253c2.352-1.594,4.89-3.345,6.402-5.647
	c2.81-4.277,5.264-8.886,6.493-13.926c1.571-6.44,0.736-12.401-4.485-17.111c-2.76-2.487-6.224-3.773-9.735-4.296
	c-4.838-0.721-9.573,0.427-13.617,3.24c-2.02,1.404-3.608,3.461-5.282,5.32c-2.364,2.625-5.857,3.421-9.089,1.925
	c-1.302-0.603-2.606-1.2-3.894-1.832c-4.1-2.015-7.562-0.738-11.005,2.022c0.507,0.583,0.808,1.145,1.277,1.43
	c2.883,1.755,4.667,4.402,6.162,7.316c2.622,5.112,3.249,10.236,0.013,15.324c-1.281,2.014-2.59,4.04-4.138,5.846
	c-2.826,3.296-6.396,5.286-10.824,5.723c-4.283,0.425-7.106-1.523-9.054-5.096c-1.899-3.48-0.99-6.87,0.459-10.21
	c0.048-0.112,0.428-0.081,0.919-0.157c0.127,0.475,0.406,0.999,0.374,1.501c-0.084,1.311-0.368,2.608-0.462,3.918
	c-0.399,5.577,3.615,9.077,9.014,8.111c2.634-0.471,4.835-1.683,6.444-3.604c2.137-2.55,4.089-5.315,5.713-8.217
	c1.351-2.413,1.669-5.147,1.044-8.011c-0.818-3.75-2.482-6.876-5.196-9.622c-2.954-2.988-7.068-3.619-10.459-5.674
	c-0.282-0.17-0.701-0.136-1.058-0.157c-1.792-0.109-3.585-0.206-5.376-0.305c-3.85-0.213-7.104,0.804-10.182,3.423
	c-3.185,2.71-4.922,5.967-6.306,9.759c-3.354,9.194-1.865,17.651,3.436,25.591c1.655,2.479,3.531,4.838,5.518,7.063
	c2.042,2.286,4.568,3.917,7.832,3.708c3.091-0.197,6.173-0.521,9.26-0.772c0.976-0.078,1.956-0.099,2.934-0.146
	c0.084,0.273,0.168,0.545,0.252,0.818c-0.585,0.431-1.144,1.187-1.759,1.234c-3.686,0.296-7.383,0.441-11.077,0.606
	c-1.157,0.053-2.319,0.009-3.842,0.009c-0.074,1.823-0.367,3.252-0.147,4.597c1.078,6.564,4.659,11.745,9.732,15.763
	c4.31,3.413,9.166,5.999,14.473,7.711c3.938,1.271,7.747,1.565,11.466-0.459c2.709-1.474,5.4-3.004,7.979-4.693
	c5.167-3.381,8.479-8.501,12.6-13.385c-4.023-0.869-7.614-1.73-11.24-2.406c-3.251-0.606-5.673-1.995-7.14-5.198
	c-1.492-3.258-2.247-6.531-1.893-10.077c0.178-1.784,0.552-3.577,0.481-5.353c-0.152-3.761,1.021-7.047,3.005-10.149
	c3.015-4.714,7.562-6.364,12.862-6.439C100.716,120.515,101.577,121.009,102.762,121.369z M86.57,143.609
	c0.756,3.526,1.135,6.325,2.649,8.841c0.917,1.521,2.139,2.513,3.914,2.866c2.929,0.583,5.846,1.224,8.762,1.867
	c3.109,0.686,6.306,0.888,9.154-0.529c2.258-1.122,4.596-1.831,6.94-2.625c3.254-1.102,5.979-2.96,8.131-5.672
	c1.039-1.311,2.047-2.723,3.343-3.742c5.915-4.658,11.892-9.24,17.928-13.742c1.71-1.276,3.689-2.19,5.549-3.264
	c1.747-1.006,3.663-1.797,5.212-3.044c3.602-2.899,7.53-4.877,12.03-6.09c6.764-1.823,13.249-2.732,19.831,0.829
	c2.351,1.271,5.3,1.435,7.975,2.105c-0.929-1.436-2.037-2.34-3.283-2.97c-3.202-1.618-6.442-3.164-9.709-4.647
	c-6.302-2.861-12.917-3.331-19.672-2.311c-2.716,0.41-5.384,1.398-8.097,1.5c-5.105,0.191-9.492,1.854-13.604,4.827
	c-6.51,4.707-12.802,9.664-18.332,15.487c-5.428,5.714-11.393,10.596-18.825,13.419c-2.671,1.014-5.38,1.601-8.4,1.259
	C94.067,147.519,90.404,146.479,86.57,143.609z M104.121,165.752c4.036,1.317,7.265,2.577,10.6,3.417
	c8.257,2.079,15.854,0.599,22.596-4.734c2.994-2.368,5.907-4.845,8.967-7.123c6.639-4.94,8.151-12.176,9.089-19.832
	c-1.87,0.904-3.866,1.749-4.999,3.249c-3.164,4.189-7.438,7.024-11.506,10.099c-4.421,3.34-9.221,5.977-15.026,5.774
	c-4.153-0.145-7.992,1.175-11.888,2.301C108.482,159.905,106.683,162.665,104.121,165.752z M164.475,108.085
	c-3.222-0.876-5.839-0.798-8.379-0.65c-7.496,0.436-14.633,1.84-20.543,7.15c-3.096,2.782-6.736,4.952-10.087,7.455
	c-1.715,1.281-3.672,2.43-4.938,4.083c-4.075,5.326-9.275,8.784-15.605,10.877c-5.663,1.873-11.019-0.364-13.167-5.904
	c-0.458-1.18-0.866-2.377-1.297-3.567c-0.257-0.021-0.515-0.042-0.773-0.064c-0.458,1.138-1.104,2.24-1.328,3.422
	c-0.309,1.629-0.244,3.325-0.437,4.981c-0.25,2.148,0.404,3.794,1.799,5.547c1.643,2.063,3.879,2.601,6.008,3.604
	c2.687,1.264,5.377,1.157,8.015,0.177c6.453-2.396,12.106-5.987,16.894-11.044c3.436-3.629,7.159-7.019,10.988-10.237
	c3.924-3.296,8.198-6.171,12.195-9.385c3.027-2.436,6.478-3.409,10.231-3.839c2.721-0.312,5.417-0.855,8.107-1.379
	C162.758,109.194,163.288,108.729,164.475,108.085z M124.645,154.18c2.411,0.841,4.372,0.926,6.079-0.438
	c5.673-4.535,12.036-8.239,16.679-14.03c1.175-1.466,2.708-2.746,4.303-3.754c5.345-3.379,10.779-6.619,16.217-9.851
	c0.795-0.472,1.775-0.67,2.698-0.879c2.791-0.632,5.611-1.134,8.386-1.825c2.573-0.64,5.088-1.134,7.765-0.495
	c1.168,0.279,2.458,0.046,3.69,0.046c-3.303-1.968-6.607-3.444-10.449-3.338c-5.738,0.16-11.095,1.598-15.996,4.538
	c-4.077,2.446-7.796,5.503-12.361,7.108c-0.55,0.193-1.043,0.586-1.515,0.947c-5.85,4.473-11.817,8.803-17.48,13.502
	C129.793,148.09,127.483,151.138,124.645,154.18z"/>
</svg>
